<?xml version="1.0" encoding="utf-8"?>
<!-- Generator: Adobe Illustrator 16.0.3, SVG Export Plug-In . SVG Version: 6.00 Build 0)  -->
<!DOCTYPE svg PUBLIC "-//W3C//DTD SVG 1.1//EN" "http://www.w3.org/Graphics/SVG/1.1/DTD/svg11.dtd">
<svg version="1.1" id="Layer_1" xmlns="http://www.w3.org/2000/svg" xmlns:xlink="http://www.w3.org/1999/xlink" x="0px" y="0px"
	 width="512px" height="512px" viewBox="0 0 512 512" style="enable-background:new 0 0 512 512;" xml:space="preserve">
<style type="text/css">
<![CDATA[
	.st0{fill:#14B6B9;}
	.st1{fill:#4B7BB2;}
	.st2{fill:#1E4384;}
	.st3{fill:#EF467F;}
	.st4{fill:#EF4823;}
	.st5{fill:#BCBCBC;}
	.st6{fill:#F26322;}
	.st7{fill:#F6851F;}
	.st8{fill:#283D5B;}
	.st9{fill:#2B8C5E;}
	.st10{fill:#FEBF10;}
	.st11{fill:none;}
	.st12{fill:#CBDB2D;}
	.st13{fill:#010101;}
	.st14{fill:#D03827;}
	.st15{fill:#3AB37C;}
	.st16{fill:#D6E5E5;}
]]>
</style>
<g>
	<g>
		<g>
			<path class="st8" d="M346.44,231.367c-3.241-7.185-6.488-14.546-6.474-22.584c0.011-6.759,3.116-12.381,3.793-18.906
				c0.266-2.566,0.22-4.324-2.638-4.967c-2.833-0.637-5.351-0.541-8.124,0.364c-5.319,1.733-11.399,5.093-14.962,9.686
				c-0.23,3.528-4.095,6.759-7.691,3.985c-12.685-9.783-31.608-10.06-46.886-9.457c-14.418,0.568-29.779,2.281-43.495,7.024
				c-0.848,0.293-1.661,0.361-2.42,0.267c-1.224-0.007-2.479-0.456-3.558-1.529c-3.758-3.735-7.674-7.33-11.91-10.522
				c-4.397-3.314-10.086-7.818-15.85-8.103c-11.225-0.553-4.108,19.771-1.539,28.945c2.069,1.423,3.248,4.208,1.456,6.91
				c-4.809,7.249-13.512,12.809-16.493,21.164c-2.926,8.2-2.558,16.674-0.641,25.09c1.73,7.595,4.663,14.432,9.45,20.617
				c3.74,4.833,9.85,12.635,16.852,11.303c1.537-0.293,2.808,0.065,3.767,0.789c12.808,1.934,23.323,12.036,26.299,24.638
				c3.448,14.602-4.94,27.277-18.775,32.102c-14.597,5.089-28.09,0.432-35.024-13.434c-2.272-4.545-3.634-9.757-6.547-13.95
				c-1.909-2.748-4.322-3.847-7.103-3.975c2.23,10.784,0.973,22.943,9.445,31.071c9.549,9.161,22.472,7.002,34.526,8.022
				c8.973,0.759,15.604,5.675,13.847,15.454c-1.124,6.248-3.619,12.327-5.659,18.32c-2.064,6.063-2.525,11.311-2.579,17.483
				c1.537,0.239,3.077,0.457,4.623,0.65c29.377,3.664,59.229-1.146,86.419-12.514c-0.619-1.521-0.558-3.333,0.699-4.988
				c1.825-2.404,1.721-6.472,1.591-9.314c-0.221-4.839-0.912-9.67-2.053-14.379c-1.881-7.761-4.081-16.372-8.587-23.091
				c-5.331-7.951-12.862-15.585-14.199-25.489c-1.13-8.375,3.419-21.506,13.12-22.407c1.23-0.114,2.25,0.16,3.055,0.679
				c9.434-1.172,19.019-2.808,27.918-6.146c8.478-3.18,15.415-7.599,21.695-14.145c5.377-5.605,9.874-12.584,10.369-20.54
				C352.692,246.923,349.911,239.059,346.44,231.367z"/>
		</g>
	</g>
	<g>
		<g>
			<path class="st16" d="M405.935,222.737c-10.961-48.985-50.952-88.405-98.393-103.124c-22.383-6.944-46.258-9.305-69.421-5.124
				c-20.479,3.696-39.147,12.873-56.386,24.29c-18.534,12.273-36.119,27.005-49.267,45.077
				c-9.344,12.843-16.706,28.268-16.216,44.18c-0.029,0.134-0.058,0.269-0.067,0.417c-0.341,5.579-0.917,11.139-1.447,16.701
				c-0.464,0.199-0.949,0.341-1.44,0.406c-0.572,6.649-1.565,13.264-1.756,19.977c-0.199,7.017-0.188,14.044,0.185,21.056
				c0.734,13.78,2.481,27.6,6.225,40.908c5.57,19.81,15.007,38.943,30.341,53.033c13.939,12.808,31.054,20.574,49.23,24.721v-0.749
				c0-0.241,0.019-0.472,0.046-0.696c0.115-4.885,0.548-9.513,2.193-14.502c2.035-6.172,4.839-12.458,5.992-18.87
				c0.608-3.383,0.585-3.896-2.824-4.379c-5.147-0.729-10.383-0.342-15.563-0.644c-6.073-0.354-12.394-1.265-17.917-3.985
				c-5.629-2.773-9.316-6.62-13.083-11.51c-8.038-10.436-4.977-24.02-9.574-35.641c-0.921-2.328,0.48-5.777,3.066-6.373
				c10.099-2.327,19.6-0.362,24.719,9.406c3.85,7.346,5.958,18.81,14.6,22.166c10.965,4.257,27.822-4.431,27.027-17.174
				c-0.707-11.333-9.409-20.197-20.649-21.269c-0.463-0.044-0.876-0.141-1.253-0.273c-8.422,0.186-15.82-5.733-21.083-11.987
				c-5.996-7.125-10.633-15.106-13.041-24.136c-2.815-10.558-3.735-21.267-0.745-31.858c2.669-9.452,10.251-15.395,16.097-22.736
				c-1.378-9.065-5.779-17.749-5.456-27.059c0.248-7.156,5.301-15.512,13.124-16.212c13.766-1.232,26.406,10.169,35.958,19.574
				c14.884-4.63,30.883-6.48,46.365-6.87c14.902-0.374,32.256,0.385,45.666,8.043c4.819-5.527,12.104-9.522,18.782-11.698
				c6.956-2.267,16.655-2.063,21.494,4.309c4.565,6.011,1.704,14.267-0.29,20.672c-2.929,9.42,0.445,17.669,4.275,26.22
				c4.079,9.105,7.722,19.096,6.676,29.261c-0.96,9.33-5.002,17.441-11.147,24.443c-6.918,7.882-15.094,14.159-24.953,17.857
				c-11.165,4.188-22.757,6.499-34.577,7.875c-0.878,0.102-1.669-0.001-2.368-0.249c-1.046,1.204-2.369,3.895-2.712,4.867
				c-0.698,1.979-0.814,4.145-0.396,6.198c0.947,4.649,3.903,8.791,6.65,12.546c4.837,6.613,9.027,12.895,11.789,20.663
				c2.995,8.427,5.409,17.376,6.173,26.313c0.375,4.385,0.483,9.014-0.607,13.28c15.662-7.839,30.226-17.9,43.027-29.791
				C390.235,325.71,417.577,274.766,405.935,222.737z"/>
		</g>
	</g>
	<g>
		<g>
			<path class="st16" d="M477.248,172.111c-21.34-43.359-61.608-77.51-104.184-99.043c-42.807-21.652-92.272-33.053-140.141-25.494
				C154.019,60.035,77.57,117.904,55.016,195.502c0.017,0.859-0.206,1.748-0.737,2.609c-0.389,1.424-0.766,2.852-1.118,4.289
				c-0.501,1.012-0.958,2.035-1.39,3.066c-0.131,0.949-0.26,1.871-0.446,2.697c-0.921,4.109-1.983,8.18-2.733,12.326
				c-1.384,7.654-1.136,15.721-3.812,23.021c-0.234,2.115-0.491,4.221-0.794,6.307c-0.036,0.256-0.024,0.492,0.011,0.719
				c-0.475,4.389-0.883,8.791-1.287,13.205c-0.842,9.178-1.24,18.393-1.072,27.609c0.33,18.053,2.353,36.18,6.904,53.678
				c8.67,33.336,25.498,64.824,52.007,87.348c18.228,15.486,39.549,25.66,62.419,32.326c25.009,7.289,51.032,11.408,77.107,11.471
				c51.487,0.125,103.197-13.916,145.553-43.721C464.121,377.221,523.238,265.555,477.248,172.111z M248.265,418.308
				c-46.183,4.178-96.855-9.207-123.202-50.051c-11.423-17.708-17.956-38.053-21.089-58.798c-1.63-10.794-2.462-21.705-2.525-32.622
				c-0.033-5.699,0.08-11.4,0.398-17.092c0.35-6.259,1.589-12.498,1.827-18.725c0.094-2.448,1.623-4.073,3.455-4.788
				c-3.459-21.208,5.128-41.883,17.827-58.978c15.048-20.257,35.185-37.03,56.594-50.22c17.705-10.908,36.499-19.458,57.173-22.751
				c23.039-3.67,47.094-1.819,69.374,5.093c46.633,14.468,88.091,49.638,103.646,96.891
				C445.436,308.622,346.18,409.45,248.265,418.308z"/>
		</g>
	</g>
	<g>
		<g>
			<path d="M227.972,38.295c-8.551,1.482-17.061,3.477-25.473,5.94h124.177C294.6,35.334,260.77,32.609,227.972,38.295z"/>
		</g>
	</g>
	<g>
		<g>
			<path d="M476.935,151.184c-25.208-40.398-65.946-71.646-108.668-91.566c-13.351-6.225-27.297-11.415-41.59-15.382H202.5
				c-72.078,21.113-136.877,77.182-157.402,149.69c-3.336,5.541-3.768,13.082-5.206,19.189c-1.014,4.303-1.728,8.689-2.326,13.068
				c-0.06,0.432-0.11,0.865-0.157,1.295c-0.097,0.264-0.188,0.533-0.248,0.832c-0.836,4.189-1.518,8.41-2.104,12.646
				c-0.033,0.074-0.06,0.148-0.095,0.223c-0.533,1.158-0.606,2.258-0.367,3.238c-1.014,8.078-1.688,16.207-2.263,24.316
				c-0.811,11.434-0.903,22.898-0.259,34.342c1.252,22.287,5.647,44.52,13.341,65.482c15.342,41.799,45.506,76.547,86.126,95.293
				c23.071,10.645,48.766,16.691,73.871,19.959c25.53,3.324,51.528,3.104,76.999-0.598c50.869-7.389,98.494-29.662,136.1-64.754
				c36.375-33.939,64.978-77.57,78.114-125.768C509.737,244.574,503.427,193.639,476.935,151.184z M385.628,432.453
				c-42.356,29.805-94.066,43.846-145.553,43.721c-26.075-0.062-52.098-4.182-77.107-11.471
				c-22.871-6.666-44.191-16.84-62.419-32.326c-26.509-22.523-43.336-54.012-52.007-87.348c-4.551-17.498-6.574-35.625-6.904-53.678
				c-0.168-9.217,0.23-18.432,1.072-27.609c0.404-4.414,0.812-8.816,1.287-13.205c-0.035-0.227-0.047-0.463-0.011-0.719
				c0.303-2.086,0.56-4.191,0.794-6.307c2.675-7.301,2.427-15.367,3.812-23.021c0.75-4.146,1.812-8.217,2.733-12.326
				c0.186-0.826,0.314-1.748,0.446-2.697c0.432-1.031,0.888-2.055,1.39-3.066c0.353-1.438,0.729-2.865,1.118-4.289
				c0.531-0.861,0.754-1.75,0.737-2.609C77.57,117.904,154.019,60.035,232.923,47.574c47.869-7.559,97.334,3.842,140.141,25.494
				c42.576,21.533,82.844,55.684,104.184,99.043C523.238,265.555,464.121,377.221,385.628,432.453z"/>
		</g>
	</g>
	<g>
		<g>
			<path class="st13" d="M411.741,206.268c-15.555-47.253-57.013-82.423-103.646-96.891c-22.279-6.912-46.334-8.763-69.374-5.093
				c-20.674,3.293-39.468,11.843-57.173,22.751c-21.409,13.19-41.546,29.963-56.594,50.22
				c-12.699,17.094-21.286,37.769-17.827,58.978c-1.833,0.715-3.361,2.34-3.455,4.788c-0.237,6.227-1.477,12.466-1.827,18.725
				c-0.318,5.691-0.431,11.393-0.398,17.092c0.063,10.917,0.895,21.828,2.525,32.622c3.133,20.745,9.667,41.09,21.089,58.798
				c26.347,40.845,77.019,54.229,123.202,50.051C346.18,409.45,445.436,308.622,411.741,206.268z M299.248,390.321
				c-1.257,1.656-1.318,3.467-0.699,4.988c-27.189,11.368-57.042,16.178-86.419,12.514c-1.546-0.193-3.086-0.411-4.623-0.65
				c0.054-6.173,0.515-11.42,2.579-17.483c2.04-5.993,4.536-12.072,5.659-18.32c1.757-9.778-4.874-14.694-13.847-15.454
				c-12.054-1.02-24.977,1.139-34.526-8.022c-8.472-8.127-7.215-20.287-9.445-31.071c2.781,0.128,5.194,1.227,7.103,3.975
				c2.914,4.193,4.275,9.405,6.547,13.95c6.934,13.866,20.427,18.523,35.024,13.434c13.835-4.824,22.223-17.5,18.775-32.102
				c-2.976-12.603-13.491-22.704-26.299-24.638c-0.958-0.723-2.229-1.082-3.767-0.789c-7.001,1.332-13.111-6.47-16.852-11.303
				c-4.788-6.185-7.72-13.022-9.45-20.617c-1.917-8.416-2.285-16.89,0.641-25.09c2.981-8.355,11.684-13.915,16.493-21.164
				c1.792-2.701,0.613-5.486-1.456-6.91c-2.569-9.173-9.686-29.498,1.539-28.945c5.764,0.284,11.453,4.788,15.85,8.103
				c4.236,3.192,8.152,6.787,11.91,10.522c1.079,1.073,2.333,1.521,3.558,1.529c0.759,0.095,1.572,0.027,2.42-0.267
				c13.716-4.743,29.077-6.456,43.495-7.024c15.278-0.603,34.201-0.326,46.886,9.457c3.596,2.773,7.461-0.457,7.691-3.985
				c3.563-4.593,9.643-7.952,14.962-9.686c2.773-0.904,5.292-1.001,8.124-0.364c2.858,0.643,2.904,2.4,2.638,4.967
				c-0.678,6.525-3.782,12.147-3.793,18.906c-0.014,8.038,3.233,15.399,6.474,22.584c3.471,7.691,6.251,15.556,5.717,24.121
				c-0.496,7.956-4.992,14.935-10.369,20.54c-6.28,6.546-13.218,10.965-21.695,14.145c-8.899,3.339-18.484,4.975-27.918,6.146
				c-0.804-0.52-1.824-0.793-3.055-0.679c-9.701,0.901-14.25,14.032-13.12,22.407c1.337,9.904,8.869,17.539,14.199,25.489
				c4.506,6.72,6.706,15.331,8.587,23.091c1.142,4.708,1.833,9.54,2.053,14.379C300.969,383.849,301.073,387.917,299.248,390.321z
				 M353.005,360.289c-12.802,11.891-27.366,21.951-43.027,29.791c1.09-4.266,0.982-8.895,0.607-13.28
				c-0.765-8.937-3.178-17.886-6.173-26.313c-2.762-7.768-6.952-14.05-11.789-20.663c-2.747-3.755-5.703-7.897-6.65-12.546
				c-0.418-2.053-0.302-4.219,0.396-6.198c0.343-0.973,1.667-3.663,2.712-4.867c0.699,0.247,1.489,0.351,2.368,0.249
				c11.819-1.376,23.412-3.688,34.577-7.875c9.859-3.698,18.035-9.975,24.953-17.857c6.146-7.002,10.188-15.113,11.147-24.443
				c1.046-10.165-2.597-20.155-6.676-29.261c-3.83-8.551-7.204-16.8-4.275-26.22c1.993-6.406,4.855-14.661,0.29-20.672
				c-4.839-6.372-14.538-6.576-21.494-4.309c-6.679,2.176-13.963,6.171-18.782,11.698c-13.41-7.659-30.764-8.417-45.666-8.043
				c-15.482,0.39-31.481,2.24-46.365,6.87c-9.552-9.405-22.192-20.807-35.958-19.574c-7.823,0.7-12.876,9.056-13.124,16.212
				c-0.323,9.311,4.077,17.994,5.456,27.059c-5.846,7.341-13.428,13.284-16.097,22.736c-2.99,10.591-2.07,21.3,0.745,31.858
				c2.408,9.03,7.044,17.011,13.041,24.136c5.263,6.253,12.661,12.172,21.083,11.987c0.376,0.133,0.79,0.229,1.253,0.273
				c11.24,1.071,19.942,9.936,20.649,21.269c0.795,12.744-16.062,21.432-27.027,17.174c-8.643-3.355-10.75-14.819-14.6-22.166
				c-5.12-9.769-14.621-11.733-24.719-9.406c-2.586,0.596-3.987,4.045-3.066,6.373c4.598,11.621,1.537,25.205,9.574,35.641
				c3.766,4.89,7.454,8.737,13.083,11.51c5.522,2.721,11.843,3.632,17.917,3.985c5.181,0.302,10.416-0.086,15.563,0.644
				c3.409,0.483,3.433,0.996,2.824,4.379c-1.152,6.412-3.957,12.698-5.992,18.87c-1.645,4.989-2.078,9.617-2.193,14.502
				c-0.027,0.225-0.046,0.455-0.046,0.696v0.749c-18.176-4.146-35.291-11.913-49.23-24.721
				c-15.334-14.09-24.771-33.224-30.341-53.033c-3.743-13.309-5.49-27.128-6.225-40.908c-0.373-7.012-0.384-14.039-0.185-21.056
				c0.19-6.713,1.184-13.328,1.756-19.977c0.491-0.065,0.976-0.207,1.44-0.406c0.531-5.562,1.106-11.122,1.447-16.701
				c0.009-0.148,0.038-0.283,0.067-0.417c-0.49-15.912,6.872-31.336,16.216-44.18c13.147-18.072,30.732-32.804,49.267-45.077
				c17.239-11.417,35.907-20.594,56.386-24.29c23.164-4.181,47.038-1.82,69.421,5.124c47.44,14.719,87.431,54.139,98.393,103.124
				C417.577,274.766,390.235,325.71,353.005,360.289z"/>
		</g>
	</g>
</g>
</svg>
