<?xml version="1.0" encoding="utf-8"?>
<!-- Generator: Adobe Illustrator 16.0.3, SVG Export Plug-In . SVG Version: 6.00 Build 0)  -->
<!DOCTYPE svg PUBLIC "-//W3C//DTD SVG 1.1//EN" "http://www.w3.org/Graphics/SVG/1.1/DTD/svg11.dtd">
<svg version="1.1" id="Layer_1" xmlns="http://www.w3.org/2000/svg" xmlns:xlink="http://www.w3.org/1999/xlink" x="0px" y="0px"
	 width="512px" height="512px" viewBox="0 0 512 512" style="enable-background:new 0 0 512 512;" xml:space="preserve">
<style type="text/css">
<![CDATA[
	.st0{fill:#14B6B9;}
	.st1{fill:#4B7BB2;}
	.st2{fill:#1E4384;}
	.st3{fill:#ED488B;}
	.st4{fill:#EF4754;}
	.st5{fill:#EF4823;}
	.st6{fill:#8A4581;}
	.st7{fill:#BCBCBC;}
	.st8{fill:#F26322;}
	.st9{fill:#F6851F;}
	.st10{fill:#283D5B;}
	.st11{fill:#C56528;}
	.st12{fill:#2B8C5E;}
	.st13{fill:#FCBF95;}
	.st14{fill:#FEBF10;}
	.st15{fill:none;}
	.st16{fill:#CAD7D6;}
	.st17{fill:#CBDB2D;}
	.st18{fill:#373837;}
	.st19{fill:#D03827;}
	.st20{fill:#3AB37C;}
	.st21{fill:#D6E5E5;}
	.st22{fill:#71C598;}
]]>
</style>
<g>
	<g>
		<g>
			<g>
				<path class="st22" d="M166.104,74.962c-4.166-0.14-8.336-0.176-12.51-0.039c0.684,29.1,5.414,59.34-2.039,87.778
					c1.859,0.307,3.696,0.723,5.499,1.29c1.972,0.621,3.603,1.449,4.958,2.444c1.74-4.767,1.766-10.471,1.9-15.299
					c0.202-7.228-0.009-14.46,0.2-21.686c0.271-9.399,2.079-18.623,2.244-28.048C166.513,92.587,166.234,83.776,166.104,74.962z"/>
			</g>
		</g>
		<g>
			<g>
				<path class="st13" d="M312.505,177.187c-23.143-15.496-53.058-20.525-79.742-11.839c-25.032,8.147-47.07,26.361-48.5,54.249
					c-0.105,2.099-1.113,3.46-2.48,4.167c-3.207,31.152,4.975,67.607,33.406,85.021c32.229,19.736,74.72,21.949,108.479,4.729
					C379.725,284.918,355.337,205.868,312.505,177.187z M316.272,290.918c-15.437,12.328-36.012,17.234-55.489,16.643
					c-18.665-0.565-41.046-6.455-53.133-21.853c-15.889-20.241-11.89-46.321-7.005-69.781c-0.016-0.69,0.126-1.426,0.461-2.2
					c0.041-0.19,0.082-0.383,0.123-0.574c0.312-1.471,1.043-2.568,1.994-3.33c31.524-53.777,118.289-27.92,130.478,29.225
					C337.872,258.596,332.132,278.256,316.272,290.918z"/>
			</g>
		</g>
		<g>
			<g>
				<path class="st10" d="M305.981,211.967c-26.285-24.961-75.107-31.383-94.158,5.523c-4.797,22.756-10.257,52.331,11.787,67.629
					c16.296,11.312,38.477,13.428,57.529,9.496c17.249-3.56,35.609-13.236,41.125-31.18
					C327.832,245.319,319.229,224.549,305.981,211.967z M293.009,255.34c-0.02,1.705-0.572,3.627-2.19,4.53
					c-13.929,7.773-33.485,14.109-48.344,4.893c-4.726-2.931-7.347-7.681-8.123-13.104c-0.478-3.344,0.33-8.983-2.128-11.677
					c-2.993-3.28-0.721-7.949,2.404-8.866c5.965-12.916,24.814-17.74,37.68-15.123c7.863,1.6,15.385,5.932,18.756,13.547
					C294.699,237.755,293.108,246.667,293.009,255.34z"/>
			</g>
		</g>
		<g>
			<g>
				<path class="st10" d="M406.923,101.177c-8.154-3.228-17.434-2.693-26.031-2.528c-5.631,0.108-16.887-2.132-21.161,2.772
					c-3.645,4.186-2.551,11.783-2.409,16.873c0.123,4.402,0.426,8.876-0.015,13.268c-0.401,3.996-1.969,9.246,0.437,12.805
					c0.485,0.053,0.986,0.174,1.5,0.385c6.219,2.559,12.537,3.803,19.269,3.238c5.371-0.451,10.196-0.674,15.577-0.143
					c7.694,0.76,18.906,3.31,22.63-5.501C421.828,130.256,421.217,106.835,406.923,101.177z"/>
			</g>
		</g>
		<g>
			<g>
				<path class="st10" d="M282.608,235.309c-2.098-5.869-7.348-8.927-13.328-9.683c-9.143-1.156-22.652,1.626-26.277,11.324
					c-0.174,0.467-0.393,0.863-0.639,1.208c0.704,1.824,1.131,3.772,1.324,5.888c0.314,3.455-0.074,7.947,2.297,10.789
					c3.924,4.704,13.081,4.815,18.528,4.064c6.582-0.908,12.814-3.181,18.681-6.232
					C283.596,246.906,284.493,240.582,282.608,235.309z"/>
			</g>
		</g>
		<g>
			<g>
				<path class="st11" d="M446.132,117.786c-9.639-19.743-28.326-33.279-49.109-39.464c-24.388-7.258-48.768-5.382-73.761-3.103
					c-31.329,2.857-62.777,6.572-94.29,5.088c-11.666-0.549-23.311-1.92-34.961-3.153c-0.023,18.88-0.627,37.79-1.467,56.649
					c-0.467,10.475-0.914,20.997-2.087,31.421c-0.286,2.55-0.469,6.072-1.444,9.018h2.709c0.795,0,1.503,0.153,2.122,0.422
					c21.073-19.638,54.402-28.151,82.227-23.622c18.427,3,35.392,10.951,49.59,22.342c0.656-0.402,1.479-0.643,2.475-0.642
					c24.74,0.013,49.476,0.507,74.214,0.633c12.353,0.063,24.709,0.054,37.062-0.175c3.275-0.062,6.551-0.127,9.824-0.218
					c2.236-0.062,4.794-0.448,7.159-0.374C456.51,153.659,454.341,134.601,446.132,117.786z M421.95,152.624
					c-7.749,7.948-19.752,6.011-29.77,5.039c-6.424-0.623-12.595,0.595-19.027,0.401c-6.426-0.192-12.447-1.923-18.359-4.354
					c-0.852-0.351-1.484-0.837-1.937-1.4c-1.076-0.209-2.123-0.767-2.983-1.783c-6.08-7.171-2.199-18.352-2.403-26.848
					c-0.188-7.812-1.39-16.869,1.825-24.257c3.221-7.402,10.863-10.354,18.507-10.704c9.861-0.451,20.341-0.698,30.171,0.321
					c9.153,0.949,19.127,3.938,24.562,11.977c4.97,7.347,6.804,16.941,6.735,25.692C429.205,135.222,428.265,146.147,421.95,152.624
					z"/>
			</g>
		</g>
		<g>
			<g>
				<path class="st1" d="M176.111,75.496c0.187,9.665,0.541,19.339,0.101,28.994c-0.404,8.869-2.073,17.615-2.168,26.482
					c-0.088,8.21,0.104,16.424-0.404,24.623c-0.379,6.11-0.842,13.004-4.133,18.358c-0.062,0.102-0.131,0.193-0.197,0.288h8.98
					c0.119-0.923,0.457-1.82,1.022-2.575c0.019-0.084,0.042-0.188,0.077-0.334c0.291-1.211,0.514-2.438,0.695-3.67
					c0.508-3.453,0.848-6.93,1.132-10.408c0.823-10.023,1.28-20.074,1.659-30.123c0.623-16.489,1.149-33.01,1.165-49.514
					c0.001-0.519,0.072-0.997,0.192-1.441C181.526,75.927,178.819,75.69,176.111,75.496z"/>
			</g>
		</g>
		<g>
			<g>
				<path class="st11" d="M94.929,133.874c-1-12.654-3.074-25.469-3.701-38.201c-5.565,4.191-10.806,8.832-15.732,13.672
					c0.015,0.163,0.025,0.329,0.025,0.503c0.028,22.984,1.042,45.942,1.938,68.903c0.063-0.002,0.124-0.009,0.189-0.009h15
					c0.243,0,0.47,0.028,0.696,0.056c-1.264-2.354-0.716-5.744,1.872-7.039c0.019-0.106,0.05-0.256,0.098-0.477
					c0.109-0.511,0.216-1.021,0.295-1.538c0.465-3.068,0.573-6.158,0.58-9.258C96.203,151.604,95.628,142.724,94.929,133.874z"/>
			</g>
		</g>
		<g>
			<g>
				<path class="st21" d="M158.142,177.271c-1.312-3.419-4.391-4.114-7.73-4.61c-7.184-1.067-14.368-0.501-21.592-0.451
					c-5.783,0.039-13.363,0.929-18.328,4.191c-4.112,2.702-5.761,6.736-6.279,11.274c0.883,0.114,1.78,0.515,2.62,1.296
					c6.479,6.031,19.165,4.28,27.085,3.233c8.396-1.11,16.883-2.892,24.835-5.93C158.97,183.19,159.153,179.905,158.142,177.271z"/>
			</g>
		</g>
		<g>
			<g>
				<path class="st13" d="M452.407,285.893c-2.69-27.603,0.023-54.597,2.31-82.122c0.556-6.674,1.081-13.541,1.393-20.482
					c-0.132-0.101-0.262-0.19-0.396-0.303c-0.028-0.023-0.05-0.048-0.078-0.071c-0.352,0.118-0.897,0.104-1.688-0.071l-1.972,0.059
					c-1.312,0.037-2.626,0.072-3.938,0.104c-2.619,0.062-5.237,0.122-7.857,0.167c-5.215,0.088-10.431,0.153-15.646,0.181
					c-10.378,0.055-20.756,0.018-31.133-0.076c-19.149-0.173-38.3-0.462-57.45-0.534c17.914,18.399,29.664,42.873,31.579,69.194
					c1.916,26.321-7.948,52.009-30.621,66.806c-24.245,15.821-56.029,21.026-84.352,15.849c-25.994-4.754-53.15-17.03-67.438-40.305
					c-13.423-21.866-17.263-47.973-14.416-73.216c0.22-1.925,1.167-3.227,2.43-3.974c0.845-12.642,5.284-23.642,12.143-32.883
					h-15.362c-0.496,0-0.955-0.065-1.383-0.176c0.029,1.765,0.005,3.546-0.017,5.305c-0.026,2.402-1.112,4.142-3.332,5.104
					c-10.645,4.616-22.758,7.166-34.283,8.144c-9.976,0.846-22.788,1.229-30.668-6.106c-0.192-0.18-0.359-0.365-0.516-0.555
					c-2.724,0.574-5.724-0.77-5.67-4.317c0.015-0.983,0.057-1.97,0.128-2.954c-0.241,0.033-0.491,0.056-0.756,0.056h-15
					c-0.201,0-0.396-0.01-0.585-0.028c0.388,10.623,0.717,21.248,0.877,31.877c0.229,15.326,0.356,30.729-0.814,46.022
					c-1.105,14.442-3.117,28.787-4.833,43.165c-3.32,27.82-7.085,59.384,3.554,86.165c16.902,42.545,69.459,44.917,108.434,42.042
					c31.747-2.343,63.409-6.902,95.287-7.116c26.146-0.176,51.918,4.41,78.025,4.709c22.542,0.259,46.931-1.96,66.226-14.754
					c20.85-13.825,30.431-36.188,32.408-60.544C459.013,335.398,454.812,310.562,452.407,285.893z"/>
			</g>
		</g>
		<g>
			<g>
				<path class="st5" d="M108.451,84.927c-2.533,1.253-5.008,2.628-7.431,4.096c0.156,16.773,3.227,33.682,4.346,50.419
					c0.623,9.327,1.219,18.774,0.5,28.116c3.665-2.109,7.887-3.465,12.178-4.289v-82.34
					C114.78,82.062,111.575,83.383,108.451,84.927z"/>
			</g>
		</g>
		<g>
			<g>
				<path class="st14" d="M143.621,75.572c-5.25,0.521-10.476,1.313-15.604,2.498v84.169c0.011-0.001,0.022-0.002,0.032-0.002
					c4.136-0.072,8.38-0.299,12.616-0.298c0.224-1.052,0.742-1.908,1.436-2.558C148.792,132.166,144.283,103.364,143.621,75.572z"/>
			</g>
		</g>
		<g>
			<g>
				<path d="M333.701,239.047c-12.188-57.145-98.953-83.002-130.478-29.225c-0.951,0.762-1.682,1.859-1.994,3.33
					c-0.041,0.191-0.082,0.384-0.123,0.574c-0.335,0.774-0.477,1.51-0.461,2.2c-4.885,23.46-8.884,49.54,7.005,69.781
					c12.087,15.397,34.468,21.287,53.133,21.853c19.478,0.592,40.053-4.314,55.489-16.643
					C332.132,278.256,337.872,258.596,333.701,239.047z M322.265,263.436c-5.516,17.943-23.876,27.62-41.125,31.18
					c-19.053,3.932-41.233,1.815-57.529-9.496c-22.044-15.298-16.584-44.873-11.787-67.629
					c19.051-36.906,67.873-30.484,94.158-5.523C319.229,224.549,327.832,245.319,322.265,263.436z"/>
			</g>
		</g>
		<g>
			<g>
				<path d="M422.535,101.016c-5.435-8.038-15.408-11.027-24.562-11.977c-9.83-1.02-20.31-0.772-30.171-0.321
					c-7.644,0.35-15.286,3.302-18.507,10.704c-3.215,7.388-2.014,16.444-1.825,24.257c0.204,8.496-3.677,19.677,2.403,26.848
					c0.86,1.017,1.907,1.574,2.983,1.783c0.452,0.563,1.085,1.05,1.937,1.4c5.912,2.432,11.934,4.162,18.359,4.354
					c6.433,0.193,12.604-1.024,19.027-0.401c10.018,0.972,22.021,2.909,29.77-5.039c6.314-6.477,7.255-17.402,7.32-25.916
					C429.339,117.957,427.505,108.362,422.535,101.016z M416.719,142.346c-3.724,8.811-14.936,6.261-22.63,5.501
					c-5.381-0.531-10.206-0.309-15.577,0.143c-6.731,0.564-13.05-0.68-19.269-3.238c-0.514-0.211-1.015-0.332-1.5-0.385
					c-2.405-3.559-0.838-8.809-0.437-12.805c0.44-4.392,0.138-8.865,0.015-13.268c-0.142-5.09-1.235-12.688,2.409-16.873
					c4.274-4.904,15.53-2.664,21.161-2.772c8.598-0.165,17.877-0.699,26.031,2.528C421.217,106.835,421.828,130.256,416.719,142.346
					z"/>
			</g>
		</g>
		<g>
			<g>
				<path d="M466.953,331.062c-1.483-24.624-6.164-49.008-6.052-73.728c0.137-29.724,5.667-59.148,5.292-88.911
					c-0.323-25.657-5.485-52.841-22.86-72.644c-14.418-16.434-34.785-25.819-55.918-30.155c-25.786-5.291-52.313-1.587-78.203,0.86
					c-31.67,2.994-63.444,5.806-95.23,2.84c-12.832-1.197-25.652-2.816-38.486-3.712c-1.508-2.866-5.949-2.882-8.165-0.46
					c-5.62-0.233-11.243-0.286-16.872-0.05c-1.148-0.335-2.455-0.261-3.623,0.194c-3.477,0.225-6.955,0.555-10.438,1.034
					c-27.482,3.781-50.285,18.279-69.619,37.6c-1.613,1.612-1.715,3.47-0.978,5.003c-0.162,0.51-0.254,1.07-0.253,1.683
					c0.04,32.392,1.98,64.735,2.889,97.106c0.453,16.125,0.588,32.26,0.111,48.386c-0.426,14.367-2.441,28.688-4.221,42.933
					c-3.557,28.492-7.333,58.025-1.086,86.422c4.816,21.896,16.785,39.497,36.612,50.334c18.328,10.018,40.064,12.645,60.629,13.023
					c28.234,0.519,56.505-3.896,84.591-6.206c15.807-1.3,31.655-2.062,47.518-1.717c13.406,0.291,26.689,2.026,40.033,3.183
					c23.1,2.001,46.536,2.64,69.219-2.896c22.595-5.515,42.414-19.102,53.879-39.532
					C467.623,380.444,468.38,354.722,466.953,331.062z M190.457,165.225c1.173-10.424,1.62-20.946,2.087-31.421
					c0.84-18.859,1.443-37.77,1.467-56.649c11.65,1.233,23.295,2.604,34.961,3.153c31.513,1.484,62.961-2.23,94.29-5.088
					c24.993-2.279,49.373-4.155,73.761,3.103c20.783,6.185,39.471,19.721,49.109,39.464c8.209,16.814,10.378,35.873,10.262,54.822
					c-2.365-0.074-4.923,0.312-7.159,0.374c-3.273,0.091-6.549,0.156-9.824,0.218c-12.353,0.229-24.709,0.238-37.062,0.175
					c-24.738-0.126-49.474-0.62-74.214-0.633c-0.995-0.001-1.818,0.239-2.475,0.642c-14.198-11.391-31.163-19.342-49.59-22.342
					c-27.824-4.529-61.153,3.984-82.227,23.622c-0.619-0.269-1.327-0.422-2.122-0.422h-2.709
					C189.988,171.297,190.171,167.774,190.457,165.225z M323.668,313.514c-33.76,17.221-76.25,15.008-108.479-4.729
					c-28.432-17.414-36.613-53.869-33.406-85.021c1.367-0.707,2.375-2.068,2.48-4.167c1.43-27.888,23.468-46.102,48.5-54.249
					c26.685-8.687,56.6-3.657,79.742,11.839C355.337,205.868,379.725,284.918,323.668,313.514z M169.507,173.954
					c3.291-5.354,3.754-12.248,4.133-18.358c0.508-8.199,0.316-16.413,0.404-24.623c0.095-8.867,1.764-17.613,2.168-26.482
					c0.44-9.655,0.086-19.329-0.101-28.994c2.708,0.194,5.415,0.431,8.122,0.681c-0.12,0.444-0.191,0.923-0.192,1.441
					c-0.016,16.504-0.542,33.024-1.165,49.514c-0.379,10.049-0.836,20.1-1.659,30.123c-0.284,3.479-0.624,6.955-1.132,10.408
					c-0.182,1.232-0.404,2.459-0.695,3.67c-0.035,0.146-0.059,0.25-0.077,0.334c-0.565,0.755-0.903,1.652-1.022,2.575h-8.98
					C169.376,174.147,169.444,174.056,169.507,173.954z M153.595,74.923c4.174-0.137,8.344-0.101,12.51,0.039
					c0.13,8.814,0.408,17.625,0.253,26.441c-0.165,9.425-1.973,18.648-2.244,28.048c-0.209,7.226,0.002,14.458-0.2,21.686
					c-0.135,4.828-0.16,10.532-1.9,15.299c-1.355-0.995-2.986-1.823-4.958-2.444c-1.803-0.567-3.64-0.983-5.499-1.29
					C159.009,134.263,154.278,104.022,153.595,74.923z M150.411,172.661c3.34,0.496,6.419,1.191,7.73,4.61
					c1.012,2.634,0.828,5.919,0.61,9.004c-7.952,3.038-16.438,4.819-24.835,5.93c-7.92,1.047-20.606,2.798-27.085-3.233
					c-0.84-0.781-1.737-1.182-2.62-1.296c0.519-4.538,2.167-8.572,6.279-11.274c4.965-3.263,12.545-4.152,18.328-4.191
					C136.043,172.16,143.228,171.594,150.411,172.661z M128.017,78.07c5.129-1.185,10.354-1.978,15.604-2.498
					c0.662,27.792,5.171,56.594-1.521,83.81c-0.693,0.649-1.212,1.506-1.436,2.558c-4.236-0.001-8.48,0.226-12.616,0.298
					c-0.01,0-0.021,0.001-0.032,0.002V78.07z M108.451,84.927c3.124-1.544,6.329-2.864,9.593-3.998v82.34
					c-4.291,0.824-8.513,2.18-12.178,4.289c0.719-9.342,0.123-18.789-0.5-28.116c-1.119-16.737-4.189-33.646-4.346-50.419
					C103.443,87.555,105.918,86.18,108.451,84.927z M91.228,95.673c0.627,12.732,2.701,25.547,3.701,38.201
					c0.699,8.85,1.274,17.73,1.26,26.612c-0.007,3.1-0.115,6.189-0.58,9.258c-0.079,0.517-0.186,1.027-0.295,1.538
					c-0.048,0.221-0.079,0.37-0.098,0.477c-2.588,1.295-3.136,4.686-1.872,7.039c-0.227-0.027-0.453-0.056-0.696-0.056h-15
					c-0.065,0-0.126,0.007-0.189,0.009c-0.896-22.961-1.909-45.919-1.938-68.903c0-0.174-0.011-0.34-0.025-0.503
					C80.422,104.505,85.662,99.864,91.228,95.673z M456.995,360.253c-1.978,24.355-11.559,46.719-32.408,60.544
					c-19.295,12.794-43.684,15.013-66.226,14.754c-26.107-0.299-51.879-4.885-78.025-4.709c-31.878,0.214-63.54,4.773-95.287,7.116
					c-38.975,2.875-91.531,0.503-108.434-42.042c-10.639-26.781-6.874-58.345-3.554-86.165c1.716-14.378,3.728-28.723,4.833-43.165
					c1.171-15.294,1.044-30.696,0.814-46.022c-0.16-10.629-0.489-21.254-0.877-31.877c0.189,0.019,0.384,0.028,0.585,0.028h15
					c0.265,0,0.515-0.022,0.756-0.056c-0.071,0.984-0.113,1.971-0.128,2.954c-0.054,3.548,2.946,4.892,5.67,4.317
					c0.156,0.189,0.323,0.375,0.516,0.555c7.88,7.335,20.692,6.952,30.668,6.106c11.525-0.978,23.639-3.527,34.283-8.144
					c2.22-0.963,3.306-2.702,3.332-5.104c0.021-1.759,0.046-3.54,0.017-5.305c0.428,0.11,0.887,0.176,1.383,0.176h15.362
					c-6.858,9.241-11.298,20.241-12.143,32.883c-1.263,0.747-2.21,2.049-2.43,3.974c-2.847,25.243,0.993,51.35,14.416,73.216
					c14.288,23.274,41.444,35.551,67.438,40.305c28.322,5.178,60.106-0.027,84.352-15.849
					c22.673-14.797,32.537-40.484,30.621-66.806c-1.915-26.321-13.665-50.795-31.579-69.194c19.15,0.072,38.301,0.361,57.45,0.534
					c10.377,0.094,20.755,0.131,31.133,0.076c5.215-0.027,10.431-0.093,15.646-0.181c2.62-0.045,5.238-0.104,7.857-0.167
					c1.312-0.032,2.626-0.067,3.938-0.104l1.972-0.059c0.79,0.176,1.336,0.189,1.688,0.071c0.028,0.023,0.05,0.048,0.078,0.071
					c0.135,0.112,0.265,0.202,0.396,0.303c-0.312,6.941-0.837,13.809-1.393,20.482c-2.286,27.525-5,54.52-2.31,82.122
					C454.812,310.562,459.013,335.398,456.995,360.253z"/>
			</g>
		</g>
		<g>
			<g>
				<path d="M291.063,229.54c-3.371-7.615-10.893-11.947-18.756-13.547c-12.865-2.617-31.715,2.207-37.68,15.123
					c-3.125,0.917-5.397,5.586-2.404,8.866c2.458,2.693,1.65,8.333,2.128,11.677c0.776,5.423,3.397,10.173,8.123,13.104
					c14.858,9.217,34.415,2.881,48.344-4.893c1.618-0.903,2.171-2.825,2.19-4.53C293.108,246.667,294.699,237.755,291.063,229.54z
					 M283.194,252.667c-5.866,3.052-12.099,5.324-18.681,6.232c-5.447,0.751-14.604,0.64-18.528-4.064
					c-2.371-2.842-1.982-7.334-2.297-10.789c-0.193-2.115-0.62-4.063-1.324-5.888c0.246-0.345,0.465-0.741,0.639-1.208
					c3.625-9.698,17.135-12.48,26.277-11.324c5.98,0.756,11.23,3.813,13.328,9.683C284.493,240.582,283.596,246.906,283.194,252.667
					z"/>
			</g>
		</g>
	</g>
	<g>
		<g>
			<path class="st21" d="M247.918,202.965c-9.506-2.913-19.312,1.977-20.863,12.205c-1.654,10.916,7.032,18.424,17.294,18.691
				c3.772,0.099,5.05-3.287,4.179-6.14c2.156-0.61,3.424-3.137,3.424-5.231v-15.002C251.951,205.12,249.945,203.586,247.918,202.965
				z M241.979,215.498c-2.249,1.172-3.322,3.953-2.771,6.176c-0.018,0.248-0.016,0.496,0,0.743c-1.62-1.235-2.553-3.144-2.336-5.339
				c0.333-3.372,2.373-4.803,5.107-4.907V215.498z"/>
		</g>
	</g>
</g>
</svg>
