<?xml version="1.0" encoding="utf-8"?>
<!-- Generator: Adobe Illustrator 16.0.3, SVG Export Plug-In . SVG Version: 6.00 Build 0)  -->
<!DOCTYPE svg PUBLIC "-//W3C//DTD SVG 1.1//EN" "http://www.w3.org/Graphics/SVG/1.1/DTD/svg11.dtd">
<svg version="1.1" id="Layer_1" xmlns="http://www.w3.org/2000/svg" xmlns:xlink="http://www.w3.org/1999/xlink" x="0px" y="0px"
	 width="512px" height="512px" viewBox="0 0 512 512" style="enable-background:new 0 0 512 512;" xml:space="preserve">
<style type="text/css">
<![CDATA[
	.st0{fill:#14B6B9;}
	.st1{fill:#4B7BB2;}
	.st2{fill:#1E4384;}
	.st3{fill:#ED488B;}
	.st4{fill:#EF4754;}
	.st5{fill:#EF4823;}
	.st6{fill:#8A4581;}
	.st7{fill:#BCBCBC;}
	.st8{fill:#F26322;}
	.st9{fill:#F6851F;}
	.st10{fill:#283D5B;}
	.st11{fill:#C56528;}
	.st12{fill:#2B8C5E;}
	.st13{fill:#FCBF95;}
	.st14{fill:#FEBF10;}
	.st15{fill:none;}
	.st16{fill:#CAD7D6;}
	.st17{fill:#CBDB2D;}
	.st18{fill:#373837;}
	.st19{fill:#D03827;}
	.st20{fill:#3AB37C;}
	.st21{fill:#D6E5E5;}
	.st22{fill:#71C598;}
]]>
</style>
<g>
	<g>
		<g>
			<path class="st21" d="M185.372,109.002c-10.292-4.271-23.917-3.139-33.476,2.591c-5.547,3.324-10.539,8.171-11.597,14.865
				c-1.333,8.435,2.437,16.142,8.772,21.574c0.968,0.83,1.522,1.778,1.757,2.749c8.692,3.633,18.412,6.933,27.435,4.172
				c7.693-2.354,14.721-7.467,17.383-15.329C199.553,128.085,197.51,114.038,185.372,109.002z"/>
		</g>
	</g>
	<g>
		<g>
			<path class="st21" d="M421.441,270.244c-0.405-20.727-1.784-42.674-11.202-61.551c-9.323-18.688-26.823-30.793-47.46-33.512
				c-19.16-2.523-40.062,2.199-53.662,16.613c-2.152,2.281-4.98,2.126-7.037,0.798c-0.05-0.014-0.095-0.015-0.145-0.03
				c-3.549-1.066-5.071-3.582-6.445-6.85c-0.708-1.684-1.334-3.423-2.147-5.061c-0.159-0.321-0.311-0.528-0.444-0.682
				c-0.431-0.075-0.863-0.139-1.3-0.176c-6.145-0.435-12.352,0.826-18.505,0.858c-6.354,0.033-12.729,0.169-19.061,0.746
				c-3.271,0.298-6.667,0.539-9.853,1.379c-1.144,0.301-2.321,0.611-3.405,1.105c-0.191,0.382-0.407,0.722-0.646,1.02
				c0.711,13.581,3.96,26.815,6.041,40.242c2.44,15.749,3.021,31.857,4.256,47.74c1.992,25.605,2.484,51.086,2.546,76.723
				c17.209,0.202,34.362,1.641,51.537,2.646c-0.014-0.214-0.019-0.436-0.01-0.666c0.001-0.038,0.004-0.074,0.006-0.111
				c-0.059-0.203-0.121-0.406-0.197-0.604c-0.965-2.528-0.056-4.614,1.577-5.866c1.82-18.581,2.186-37.602,1.562-56.227
				c-0.653-19.486-4.809-38.672-4.947-58.191c-0.017-2.401,1.24-4.085,2.908-4.986c0.027-10.399,12.003-15.452,21.327-17.178
				c11.897-2.201,27.131-1.138,35.59,8.611c5.928,6.833,5.918,17.958,6.283,26.468c0.519,12.119,0.521,24.268,1.516,36.362
				c0.554,6.742,1.292,13.552,0.989,20.326c-0.263,5.886-0.943,11.718-1.127,17.611c-0.179,5.717-0.295,11.457-0.842,17.153
				c-0.367,3.814-1.49,7.76-2.158,11.634c17.826-0.451,35.572-2.562,53.403-2.871c0.557-0.453,1.246-0.787,2.083-0.939
				C422.4,318.599,421.914,294.414,421.441,270.244z"/>
		</g>
	</g>
	<g>
		<g>
			<path class="st21" d="M213.295,324.077c-0.596-10.362,0.026-20.76-0.35-31.139c-0.833-23.022-3.495-45.935-7.258-68.654
				c-1.343-8.107-1.992-15.742-2.305-23.92c-0.13-3.419,0.234-9.832-3.708-11.445c-3.313-1.355-7.287-0.572-10.705-0.146
				c-5.054,0.632-10.097,1.346-15.148,1.994c-8.919,1.146-17.821,1.983-26.791,1.907c2.105,23.178,5.189,46.266,6.822,69.488
				c2.074,29.489,1.777,59.131,2.97,88.674c10.168-2.287,21.799-0.307,31.734,0.423c4.326,0.317,8.666,0.37,13.001,0.477
				c2.488,0.062,4.981,0.13,7.47,0.062c0.987-0.026,1.981-0.056,2.967-0.145c0.216-0.135,0.442-0.257,0.679-0.359
				C215.62,342.839,213.796,332.776,213.295,324.077z"/>
		</g>
	</g>
	<g>
		<g>
			<path class="st1" d="M501.707,287.984c-0.877-26.035-5.083-52.045-13.158-76.838c-15.944-48.955-45.417-93.704-86.948-124.647
				c-76.963-57.344-201.5-78.673-275.931-5.825c-34.538,33.802-54.421,82.715-61.597,129.884
				c-7.217,47.424-2.616,97.978,19.499,141.099c36.455,71.079,115.287,125.657,196.048,122.877c0.811-0.284,1.725-0.35,2.709-0.113
				c1.475-0.075,2.948-0.162,4.424-0.276c1.118,0.161,2.233,0.276,3.348,0.364c0.942-0.171,1.858-0.337,2.701-0.418
				c4.191-0.407,8.39-0.668,12.564-1.248c7.704-1.073,15.29-3.826,23.061-3.562c2.083-0.438,4.163-0.852,6.24-1.213
				c0.254-0.047,0.475-0.131,0.679-0.235c4.318-0.917,8.628-1.903,12.948-2.896c8.982-2.063,17.862-4.56,26.566-7.595
				c17.049-5.946,33.639-13.523,48.845-23.307c28.967-18.637,53.634-44.447,66.763-76.661
				C499.494,335.224,502.509,311.792,501.707,287.984z M144.067,103.51c13.553-8.624,33.3-11.273,47.901-3.563
				c6.888,3.636,12.927,9.658,14.908,17.408c2.332,9.122,1.946,20.693-2.241,29.276c-4.908,10.061-14.933,17.383-25.898,19.434
				c-13.616,2.545-26.446-2.709-38.743-7.974c-3.001-1.284-3.577-4.063-2.693-6.418C125.183,136.854,126.652,114.59,144.067,103.51z
				 M222.427,356.501c-0.432,1.187-1.102,1.998-1.894,2.502c-3.331,6.173-20.963,3.652-25.608,3.525
				c-6.976-0.19-13.907-1.076-20.876-1.364c-6.091-0.253-12.753-0.642-18.553,1.587c-0.311,0.158-0.635,0.293-0.972,0.408
				c-0.068,0.029-0.137,0.055-0.205,0.086c-1.484,0.68-2.812,0.648-3.905,0.17c-2.262-0.56-4.136-2.37-4.259-4.881
				c-1.58-32.264-0.933-64.697-3.372-96.91c-1.836-24.248-5.073-48.356-7.127-72.582c-0.1-1.176,0.125-2.175,0.562-2.998
				c0.093-2.457,1.65-4.637,4.859-4.476c12.605,0.632,25.032-0.838,37.501-2.517c7.962-1.072,19.263-4.228,26.76,0.403
				c12.528,7.737,8.221,25.735,10.331,38.099c4.314,25.286,7.631,50.831,8.308,76.5c0.3,11.352-0.135,22.66,0.603,33.998
				C225.203,337.635,225.764,347.335,222.427,356.501z M428.409,353.649h-0.878c-0.777,0.613-1.813,0.994-3.122,1
				c-20.708,0.095-41.29,2.909-62,3c-0.164,0.001-0.322-0.011-0.479-0.021c-1.512,0.391-3.167,0.076-4.575-1.332
				c-0.667-0.666-1.333-1.333-2-2c-2.961-2.961-1.619-7.094,1.014-8.909c0.487-2.416,1.061-4.822,1.39-7.335
				c0.694-5.299,0.982-10.607,1.149-15.946c0.317-10.101,1.701-20.239,1.084-30.335c-0.634-10.384-1.521-20.725-1.864-31.126
				c-0.334-10.174-0.033-20.579-1.932-30.623c-1.953-10.326-13.095-12.093-22.232-11.438c-4.724,0.338-9.485,1.187-13.772,3.294
				c-1.529,0.752-2.785,1.659-3.624,2.775c-0.217,0.289-0.338,0.925-0.391,0.693c0.628,2.799-0.732,5.07-2.667,6.308
				c0.414,20.128,4.961,39.938,4.96,60.087c-0.001,19.504-0.005,39.057-2.086,58.474c-0.068,0.634-0.3,1.21-0.624,1.73
				c0.206,1.881,0.221,3.792,0.225,5.686c0.006,2.688-1.913,6.071-5.062,5.909c-20-1.031-39.96-2.937-60-3
				c-0.235-0.001-0.462-0.016-0.684-0.04c-3.25,1.909-8.225,0.754-8.225-4.021c0-27.671-0.388-55.138-2.558-82.745
				c-1.247-15.862-1.701-32.025-4.256-47.74c-2.406-14.794-6.034-29.453-6.186-44.515c-0.029-2.88,1.776-4.73,3.93-5.433
				c3.635-3.556,10.225-4.413,14.772-5.013c7.632-1.006,15.354-1.284,23.046-1.34c7.288-0.054,14.585-1.286,21.866-0.771
				c3.866,0.273,7.483,1.428,9.505,5.017c1.119,1.987,2.054,4.049,2.918,6.157c0.039,0.095,0.077,0.19,0.115,0.285
				c32.046-28.084,88.281-20.228,110.869,16.31c12.37,20.009,15.531,43.978,16.235,67.076c0.363,11.92-0.02,23.849,0.487,35.76
				c0.683,16.063,0.711,32.14,0.712,48.214C433.471,350.551,431.569,353.649,428.409,353.649z"/>
		</g>
	</g>
	<g>
		<g>
			<path d="M506.619,241.698c-4.806-25.292-13.126-49.922-24.589-72.969c-22.89-46.023-58.909-84.323-103.982-109.104
				c-43.594-23.972-93.971-37.534-143.86-34.979c-49.807,2.553-96.231,24.438-128.303,62.853
				c-30.518,36.554-47.497,85.006-53.094,131.812c-5.675,47.449,0.911,97.463,23.511,139.944
				c39.001,73.316,120.836,128.679,204.916,125.194c6.306,1.44,13.605-0.502,19.855-1.041c4.405-0.379,8.795-1.069,13.143-1.867
				c0.428-0.078,0.856-0.167,1.279-0.256c0.281,0.011,0.566,0.013,0.868-0.024c4.241-0.513,8.464-1.182,12.672-1.946
				c0.081,0.008,0.16,0.011,0.241,0.022c1.267,0.145,2.334-0.129,3.191-0.663c7.991-1.557,15.925-3.452,23.809-5.437
				c11.116-2.795,22.037-6.285,32.709-10.467c20.784-8.143,40.535-19.254,58.052-33.104c34.926-27.617,58.53-67.115,63.667-111.558
				C513.618,292.869,511.346,266.569,506.619,241.698z M490.467,357.373c-13.129,32.214-37.796,58.024-66.763,76.661
				c-15.206,9.783-31.796,17.36-48.845,23.307c-8.704,3.035-17.583,5.531-26.566,7.595c-4.32,0.993-8.629,1.979-12.948,2.896
				c-0.204,0.104-0.425,0.188-0.679,0.235c-2.077,0.361-4.157,0.775-6.24,1.213c-7.771-0.265-15.357,2.488-23.061,3.562
				c-4.174,0.58-8.373,0.841-12.564,1.248c-0.843,0.081-1.759,0.247-2.701,0.418c-1.115-0.088-2.23-0.203-3.348-0.364
				c-1.476,0.114-2.949,0.201-4.424,0.276c-0.984-0.236-1.898-0.171-2.709,0.113c-80.761,2.78-159.593-51.798-196.048-122.877
				c-22.115-43.121-26.716-93.675-19.499-141.099c7.176-47.169,27.059-96.082,61.597-129.884
				c74.431-72.848,198.967-51.519,275.931,5.825c41.531,30.943,71.004,75.692,86.948,124.647
				c8.075,24.793,12.28,50.803,13.158,76.838C502.509,311.792,499.494,335.224,490.467,357.373z"/>
		</g>
	</g>
	<g>
		<g>
			<path d="M224.579,328.052c-0.738-11.338-0.303-22.646-0.603-33.998c-0.677-25.669-3.994-51.214-8.308-76.5
				c-2.109-12.363,2.197-30.361-10.331-38.099c-7.497-4.631-18.797-1.476-26.76-0.403c-12.47,1.679-24.896,3.148-37.501,2.517
				c-3.208-0.161-4.766,2.019-4.859,4.476c-0.438,0.823-0.662,1.822-0.562,2.998c2.054,24.226,5.291,48.334,7.127,72.582
				c2.439,32.213,1.792,64.646,3.372,96.91c0.123,2.511,1.997,4.321,4.259,4.881c1.093,0.479,2.421,0.51,3.905-0.17
				c0.068-0.031,0.137-0.057,0.205-0.086c0.336-0.115,0.661-0.25,0.972-0.408c5.799-2.229,12.461-1.84,18.553-1.587
				c6.969,0.288,13.901,1.174,20.876,1.364c4.646,0.127,22.277,2.647,25.608-3.525c0.792-0.504,1.462-1.315,1.894-2.502
				C225.764,347.335,225.203,337.635,224.579,328.052z M212.674,351.295c-0.237,0.103-0.463,0.225-0.679,0.359
				c-0.986,0.089-1.98,0.118-2.967,0.145c-2.488,0.067-4.982-0.001-7.47-0.062c-4.335-0.106-8.675-0.159-13.001-0.477
				c-9.935-0.729-21.566-2.71-31.734-0.423c-1.192-29.543-0.896-59.185-2.97-88.674c-1.633-23.223-4.717-46.311-6.822-69.488
				c8.97,0.076,17.871-0.762,26.791-1.907c5.052-0.648,10.094-1.362,15.148-1.994c3.418-0.427,7.392-1.21,10.705,0.146
				c3.941,1.613,3.577,8.026,3.708,11.445c0.312,8.178,0.962,15.812,2.305,23.92c3.763,22.72,6.425,45.632,7.258,68.654
				c0.375,10.379-0.247,20.776,0.35,31.139C213.796,332.776,215.62,342.839,212.674,351.295z"/>
		</g>
	</g>
	<g>
		<g>
			<path d="M432.759,299.526c-0.507-11.911-0.125-23.84-0.487-35.76c-0.704-23.099-3.866-47.067-16.235-67.076
				c-22.588-36.537-78.823-44.394-110.869-16.31c-0.038-0.095-0.076-0.19-0.115-0.285c-0.864-2.108-1.799-4.17-2.918-6.157
				c-2.022-3.589-5.64-4.743-9.505-5.017c-7.281-0.516-14.579,0.717-21.866,0.771c-7.692,0.056-15.414,0.334-23.046,1.34
				c-4.547,0.6-11.137,1.457-14.772,5.013c-2.154,0.702-3.959,2.553-3.93,5.433c0.152,15.062,3.78,29.721,6.186,44.515
				c2.556,15.715,3.009,31.878,4.256,47.74c2.17,27.607,2.558,55.074,2.558,82.745c0,4.775,4.976,5.931,8.225,4.021
				c0.221,0.024,0.449,0.039,0.684,0.04c20.04,0.063,40,1.969,60,3c3.149,0.162,5.068-3.222,5.062-5.909
				c-0.004-1.894-0.019-3.805-0.225-5.686c0.324-0.521,0.556-1.097,0.624-1.73c2.081-19.417,2.085-38.97,2.086-58.474
				c0-20.148-4.547-39.959-4.96-60.087c1.934-1.237,3.294-3.509,2.667-6.308c0.052,0.231,0.174-0.404,0.391-0.693
				c0.839-1.116,2.095-2.023,3.624-2.775c4.288-2.107,9.048-2.956,13.772-3.294c9.138-0.654,20.279,1.112,22.232,11.438
				c1.899,10.044,1.598,20.449,1.932,30.623c0.342,10.401,1.229,20.742,1.864,31.126c0.617,10.096-0.768,20.234-1.084,30.335
				c-0.167,5.339-0.456,10.647-1.149,15.946c-0.329,2.513-0.902,4.919-1.39,7.335c-2.633,1.815-3.975,5.948-1.014,8.909
				c0.667,0.667,1.333,1.334,2,2c1.408,1.408,3.063,1.723,4.575,1.332c0.157,0.011,0.315,0.022,0.479,0.021
				c20.71-0.091,41.292-2.905,62-3c1.309-0.006,2.345-0.387,3.122-1h0.878c3.161,0,5.062-3.099,5.062-5.909
				C433.47,331.666,433.442,315.59,432.759,299.526z M420.39,343.719c-17.831,0.309-35.577,2.42-53.403,2.871
				c0.667-3.874,1.791-7.819,2.158-11.634c0.547-5.696,0.664-11.437,0.842-17.153c0.184-5.894,0.864-11.726,1.127-17.611
				c0.303-6.774-0.435-13.584-0.989-20.326c-0.995-12.095-0.997-24.243-1.516-36.362c-0.365-8.51-0.355-19.635-6.283-26.468
				c-8.459-9.749-23.693-10.812-35.59-8.611c-9.324,1.726-21.3,6.778-21.327,17.178c-1.668,0.901-2.925,2.585-2.908,4.986
				c0.139,19.52,4.294,38.705,4.947,58.191c0.625,18.625,0.259,37.646-1.562,56.227c-1.633,1.252-2.542,3.338-1.577,5.866
				c0.076,0.198,0.139,0.401,0.197,0.604c-0.001,0.037-0.004,0.073-0.006,0.111c-0.009,0.23-0.004,0.452,0.01,0.666
				c-17.175-1.005-34.328-2.443-51.537-2.646c-0.062-25.637-0.554-51.117-2.546-76.723c-1.235-15.883-1.815-31.991-4.256-47.74
				c-2.081-13.427-5.33-26.661-6.041-40.242c0.238-0.298,0.455-0.638,0.646-1.02c1.084-0.494,2.262-0.805,3.405-1.105
				c3.187-0.84,6.583-1.081,9.853-1.379c6.331-0.577,12.707-0.713,19.061-0.746c6.154-0.032,12.361-1.293,18.505-0.858
				c0.437,0.037,0.869,0.101,1.3,0.176c0.134,0.153,0.285,0.36,0.444,0.682c0.813,1.638,1.439,3.377,2.147,5.061
				c1.374,3.268,2.896,5.783,6.445,6.85c0.05,0.016,0.095,0.017,0.145,0.03c2.057,1.328,4.885,1.483,7.037-0.798
				c13.599-14.414,34.501-19.137,53.662-16.613c20.637,2.719,38.137,14.824,47.46,33.512c9.418,18.877,10.797,40.824,11.202,61.551
				c0.473,24.17,0.958,48.354,1.031,72.535C421.636,342.932,420.946,343.266,420.39,343.719z"/>
		</g>
	</g>
	<g>
		<g>
			<path d="M206.876,117.354c-1.981-7.75-8.021-13.772-14.908-17.408c-14.601-7.71-34.348-5.061-47.901,3.563
				c-17.415,11.08-18.885,33.344-6.767,48.163c-0.883,2.354-0.308,5.134,2.693,6.418c12.297,5.265,25.127,10.519,38.743,7.974
				c10.965-2.051,20.991-9.373,25.898-19.434C208.823,138.048,209.208,126.477,206.876,117.354z M195.647,139.624
				c-2.662,7.862-9.69,12.976-17.383,15.329c-9.022,2.761-18.742-0.539-27.435-4.172c-0.235-0.971-0.789-1.919-1.757-2.749
				c-6.335-5.433-10.105-13.14-8.772-21.574c1.059-6.694,6.05-11.541,11.597-14.865c9.559-5.729,23.183-6.861,33.476-2.591
				C197.51,114.038,199.553,128.085,195.647,139.624z"/>
		</g>
	</g>
</g>
</svg>
